<svg width="16" height="20" viewBox="0 0 16 20" fill="none" xmlns="http://www.w3.org/2000/svg">
<path d="M15.125 15.5555H14.5625V8.0295C14.5625 4.90619 12.118 2.3252 8.9375 1.89578V1.03471C8.9375 0.545516 8.51797 0.149292 8 0.149292C7.48203 0.149292 7.0625 0.545516 7.0625 1.03471V1.89578C3.88203 2.3252 1.4375 4.90619 1.4375 8.0295V15.5555H0.875C0.460156 15.5555 0.125 15.8721 0.125 16.2639V16.9722C0.125 17.0696 0.209375 17.1493 0.3125 17.1493H5.375C5.375 18.5173 6.55156 19.6285 8 19.6285C9.44844 19.6285 10.625 18.5173 10.625 17.1493H15.6875C15.7906 17.1493 15.875 17.0696 15.875 16.9722V16.2639C15.875 15.8721 15.5398 15.5555 15.125 15.5555ZM8 18.2118C7.37891 18.2118 6.875 17.7359 6.875 17.1493H9.125C9.125 17.7359 8.62109 18.2118 8 18.2118ZM3.125 15.5555V8.0295C3.125 6.79877 3.63125 5.6433 4.55234 4.77338C5.47344 3.90346 6.69688 3.42533 8 3.42533C9.30312 3.42533 10.5266 3.90346 11.4477 4.77338C12.3687 5.6433 12.875 6.79877 12.875 8.0295V15.5555H3.125Z" fill="white"/>
</svg>
