<svg width="22" height="21" viewBox="0 0 22 21" fill="none" xmlns="http://www.w3.org/2000/svg">
<path d="M9.87519 10.8889C9.87519 11.1707 9.99372 11.4409 10.2047 11.6402C10.4157 11.8395 10.7018 11.9514 11.0002 11.9514C11.2986 11.9514 11.5847 11.8395 11.7957 11.6402C12.0067 11.4409 12.1252 11.1707 12.1252 10.8889C12.1252 10.6071 12.0067 10.3369 11.7957 10.1376C11.5847 9.93834 11.2986 9.8264 11.0002 9.8264C10.7018 9.8264 10.4157 9.93834 10.2047 10.1376C9.99372 10.3369 9.87519 10.6071 9.87519 10.8889V10.8889ZM14.5627 10.8889C14.5627 11.1707 14.6812 11.4409 14.8922 11.6402C15.1032 11.8395 15.3893 11.9514 15.6877 11.9514C15.9861 11.9514 16.2722 11.8395 16.4832 11.6402C16.6942 11.4409 16.8127 11.1707 16.8127 10.8889C16.8127 10.6071 16.6942 10.3369 16.4832 10.1376C16.2722 9.93834 15.9861 9.8264 15.6877 9.8264C15.3893 9.8264 15.1032 9.93834 14.8922 10.1376C14.6812 10.3369 14.5627 10.6071 14.5627 10.8889ZM5.18769 10.8889C5.18769 11.1707 5.30622 11.4409 5.5172 11.6402C5.72818 11.8395 6.01433 11.9514 6.31269 11.9514C6.61106 11.9514 6.89721 11.8395 7.10819 11.6402C7.31917 11.4409 7.43769 11.1707 7.43769 10.8889C7.43769 10.6071 7.31917 10.3369 7.10819 10.1376C6.89721 9.93834 6.61106 9.8264 6.31269 9.8264C6.01433 9.8264 5.72818 9.93834 5.5172 10.1376C5.30622 10.3369 5.18769 10.6071 5.18769 10.8889V10.8889ZM20.6846 7.04619C20.1549 5.85752 19.3955 4.79059 18.4275 3.87418C17.4663 2.96308 16.3253 2.23887 15.0689 1.74254C13.7799 1.23121 12.4111 0.972229 11.0002 0.972229H10.9533C9.53301 0.97887 8.15723 1.24449 6.86348 1.76689C5.61791 2.2683 4.48753 2.99381 3.53535 3.90296C2.57676 4.81715 1.82441 5.87965 1.3041 7.0639C0.765038 8.2902 0.493163 9.59397 0.500194 10.9354C0.508147 12.4726 0.893222 13.9872 1.62519 15.3603V18.7248C1.62519 18.9949 1.73878 19.2539 1.94097 19.4448C2.14316 19.6358 2.41738 19.7431 2.70332 19.7431H6.26816C7.72198 20.4344 9.32565 20.7981 10.9533 20.8056H11.0025C12.4064 20.8056 13.7682 20.5488 15.0502 20.0463C16.3002 19.5559 17.437 18.8401 18.3971 17.939C19.365 17.0337 20.1268 15.9756 20.6588 14.7958C21.2119 13.5739 21.4932 12.2746 21.5002 10.9332C21.5072 9.58512 21.2307 8.27692 20.6846 7.04619V7.04619ZM17.1432 16.7415C15.5002 18.2777 13.3205 19.1233 11.0002 19.1233H10.9604C9.54707 19.1166 8.14316 18.7846 6.90332 18.1604L6.70644 18.0608H3.40644V14.9441L3.30098 14.7582C2.64004 13.5872 2.28848 12.2613 2.28144 10.9265C2.27207 8.71963 3.16504 6.64775 4.80332 5.0872C6.43926 3.52666 8.62598 2.66337 10.9627 2.65452H11.0025C12.1744 2.65452 13.3111 2.86923 14.3822 3.29423C15.4275 3.70817 16.365 4.30361 17.1713 5.06507C17.9752 5.82431 18.608 6.71194 19.0463 7.69918C19.501 8.72184 19.7283 9.80647 19.7236 10.9265C19.7096 13.1312 18.7932 15.1964 17.1432 16.7415V16.7415Z" fill="#002766"/>
</svg>
