<svg width="22" height="21" viewBox="0 0 22 21" fill="none" xmlns="http://www.w3.org/2000/svg">
<path d="M11 0.972229C5.20156 0.972229 0.5 5.41259 0.5 10.8889C0.5 16.3652 5.20156 20.8056 11 20.8056C16.7984 20.8056 21.5 16.3652 21.5 10.8889C21.5 5.41259 16.7984 0.972229 11 0.972229ZM11 19.1233C6.18594 19.1233 2.28125 15.4355 2.28125 10.8889C2.28125 6.34228 6.18594 2.65452 11 2.65452C15.8141 2.65452 19.7188 6.34228 19.7188 10.8889C19.7188 15.4355 15.8141 19.1233 11 19.1233Z" fill="#002766"/>
<path d="M9.875 6.99304C9.875 7.27483 9.99353 7.54509 10.2045 7.74434C10.4155 7.9436 10.7016 8.05554 11 8.05554C11.2984 8.05554 11.5845 7.9436 11.7955 7.74434C12.0065 7.54509 12.125 7.27483 12.125 6.99304C12.125 6.71125 12.0065 6.441 11.7955 6.24174C11.5845 6.04248 11.2984 5.93054 11 5.93054C10.7016 5.93054 10.4155 6.04248 10.2045 6.24174C9.99353 6.441 9.875 6.71125 9.875 6.99304V6.99304ZM11.5625 9.47221H10.4375C10.3344 9.47221 10.25 9.5519 10.25 9.64929V15.6701C10.25 15.7675 10.3344 15.8472 10.4375 15.8472H11.5625C11.6656 15.8472 11.75 15.7675 11.75 15.6701V9.64929C11.75 9.5519 11.6656 9.47221 11.5625 9.47221Z" fill="#002766"/>
</svg>
