<svg width="14" height="14" viewBox="0 0 14 14" fill="none" xmlns="http://www.w3.org/2000/svg">
<path d="M6.25015 7C6.25015 7.19891 6.32917 7.38968 6.46982 7.53033C6.61047 7.67098 6.80124 7.75 7.00015 7.75C7.19906 7.75 7.38983 7.67098 7.53048 7.53033C7.67113 7.38968 7.75015 7.19891 7.75015 7C7.75015 6.80109 7.67113 6.61032 7.53048 6.46967C7.38983 6.32902 7.19906 6.25 7.00015 6.25C6.80124 6.25 6.61047 6.32902 6.46982 6.46967C6.32917 6.61032 6.25015 6.80109 6.25015 7ZM9.37515 7C9.37515 7.19891 9.45417 7.38968 9.59482 7.53033C9.73547 7.67098 9.92624 7.75 10.1251 7.75C10.3241 7.75 10.5148 7.67098 10.6555 7.53033C10.7961 7.38968 10.8751 7.19891 10.8751 7C10.8751 6.80109 10.7961 6.61032 10.6555 6.46967C10.5148 6.32902 10.3241 6.25 10.1251 6.25C9.92624 6.25 9.73547 6.32902 9.59482 6.46967C9.45417 6.61032 9.37515 6.80109 9.37515 7ZM3.12515 7C3.12515 7.19891 3.20417 7.38968 3.34482 7.53033C3.48547 7.67098 3.67624 7.75 3.87515 7.75C4.07406 7.75 4.26483 7.67098 4.40548 7.53033C4.54613 7.38968 4.62515 7.19891 4.62515 7C4.62515 6.80109 4.54613 6.61032 4.40548 6.46967C4.26483 6.32902 4.07406 6.25 3.87515 6.25C3.67624 6.25 3.48547 6.32902 3.34482 6.46967C3.20417 6.61032 3.12515 6.80109 3.12515 7ZM13.4564 4.2875C13.1033 3.44844 12.597 2.69531 11.9517 2.04844C11.3109 1.40531 10.5502 0.894096 9.71265 0.54375C8.85327 0.182813 7.94077 0 7.00015 0H6.9689C6.02202 0.0046875 5.10484 0.192188 4.24234 0.560938C3.41196 0.914877 2.65837 1.427 2.02359 2.06875C1.38452 2.71406 0.882962 3.46406 0.536087 4.3C0.176712 5.16563 -0.00453782 6.08594 0.00014968 7.03281C0.00545163 8.11792 0.262168 9.18704 0.75015 10.1562V12.5312C0.75015 12.7219 0.825875 12.9047 0.960667 13.0395C1.09546 13.1743 1.27828 13.25 1.4689 13.25H3.84546C4.81467 13.738 5.88379 13.9947 6.9689 14H7.00171C7.93765 14 8.84546 13.8188 9.70015 13.4641C10.5335 13.1179 11.2913 12.6126 11.9314 11.9766C12.5767 11.3375 13.0845 10.5906 13.4392 9.75781C13.808 8.89531 13.9955 7.97813 14.0001 7.03125C14.0048 6.07969 13.8205 5.15625 13.4564 4.2875ZM11.0955 11.1313C10.0001 12.2156 8.54702 12.8125 7.00015 12.8125H6.97359C6.0314 12.8078 5.09546 12.5734 4.2689 12.1328L4.13765 12.0625H1.93765V9.8625L1.86734 9.73125C1.42671 8.90469 1.19234 7.96875 1.18765 7.02656C1.1814 5.46875 1.77671 4.00625 2.8689 2.90469C3.95952 1.80312 5.41734 1.19375 6.97515 1.1875H7.00171C7.78296 1.1875 8.54077 1.33906 9.25484 1.63906C9.95171 1.93125 10.5767 2.35156 11.1142 2.88906C11.6501 3.425 12.072 4.05156 12.3642 4.74844C12.6673 5.47031 12.8189 6.23594 12.8158 7.02656C12.8064 8.58281 12.1955 10.0406 11.0955 11.1313Z" fill="#262626"/>
</svg>
