<svg width="20" height="20" viewBox="0 0 20 20" fill="none" xmlns="http://www.w3.org/2000/svg">
<path d="M18.9061 15.6441H17.0311V13.8732C17.0311 13.7758 16.9467 13.6962 16.8436 13.6962H15.7186C15.6155 13.6962 15.5311 13.7758 15.5311 13.8732V15.6441H13.6561C13.553 15.6441 13.4686 15.7238 13.4686 15.8212V16.8837C13.4686 16.9811 13.553 17.0607 13.6561 17.0607H15.5311V18.8316C15.5311 18.929 15.6155 19.0087 15.7186 19.0087H16.8436C16.9467 19.0087 17.0311 18.929 17.0311 18.8316V17.0607H18.9061C19.0092 17.0607 19.0936 16.9811 19.0936 16.8837V15.8212C19.0936 15.7238 19.0092 15.6441 18.9061 15.6441ZM6.75376 9.58782C6.73266 9.39525 6.72094 9.20045 6.72094 9.00345C6.72094 8.6515 6.7561 8.3084 6.82173 7.97415C6.83813 7.89447 6.7936 7.81256 6.71626 7.77936C6.39751 7.64434 6.10454 7.4584 5.85141 7.22376C5.55315 6.95063 5.31844 6.62177 5.16227 6.25818C5.0061 5.89458 4.93189 5.50424 4.94438 5.11204C4.96548 4.4015 5.26782 3.72637 5.79516 3.21725C6.37407 2.65723 7.15219 2.35176 7.97954 2.36061C8.72719 2.36725 9.44907 2.63952 9.99516 3.12207C10.1803 3.28587 10.3397 3.46738 10.4733 3.66217C10.5202 3.73079 10.6116 3.75957 10.6913 3.73301C11.1038 3.59798 11.5397 3.5028 11.9874 3.45853C12.1186 3.44525 12.1936 3.31243 12.135 3.20176C11.3733 1.77845 9.81704 0.795637 8.01704 0.769074C5.42016 0.731444 3.25454 2.74355 3.25454 5.19616C3.25454 6.58626 3.93188 7.82585 4.9936 8.63822C4.24829 8.96361 3.56157 9.41296 2.96626 9.9752C1.68188 11.186 0.95532 12.7842 0.908445 14.4908C0.907819 14.5144 0.912207 14.5379 0.921349 14.5599C0.930492 14.5819 0.944204 14.602 0.961677 14.6189C0.979151 14.6358 1.00003 14.6493 1.02309 14.6584C1.04615 14.6676 1.07092 14.6723 1.09595 14.6723H2.41079C2.51157 14.6723 2.59594 14.5971 2.59829 14.5019C2.64282 13.218 3.1936 12.0161 4.16157 11.1041C4.85063 10.4533 5.69438 10.0018 6.61548 9.78262C6.70454 9.75827 6.76548 9.67637 6.75376 9.58782V9.58782ZM17.3124 9.00345C17.3124 6.58183 15.2522 4.614 12.6975 4.57637C10.1006 4.53874 7.93735 6.55085 7.93735 9.00345C7.93735 10.3936 8.61704 11.6331 9.67641 12.4455C8.92338 12.7752 8.23787 13.2278 7.65141 13.7825C6.36704 14.9933 5.64048 16.5915 5.5936 18.2959C5.59298 18.3195 5.59736 18.343 5.60651 18.365C5.61565 18.387 5.62936 18.4071 5.64683 18.424C5.66431 18.4409 5.68519 18.4543 5.70825 18.4635C5.73131 18.4727 5.75608 18.4774 5.7811 18.4774H7.0936C7.19438 18.4774 7.27876 18.4021 7.2811 18.307C7.32563 17.0231 7.87641 15.8212 8.84438 14.9092C9.85454 13.9551 11.1952 13.4305 12.6249 13.4305C15.2124 13.4305 17.3124 11.4494 17.3124 9.00345ZM14.7459 11.0067C14.1788 11.5424 13.4264 11.8368 12.6249 11.8368C11.8233 11.8368 11.0709 11.5424 10.5038 11.0067C10.2207 10.7408 9.99709 10.4239 9.84611 10.0749C9.69514 9.72582 9.6199 9.35169 9.62485 8.97467C9.63188 8.24863 9.93891 7.54694 10.4756 7.02676C11.0381 6.48223 11.7905 6.17897 12.5944 6.17012C13.3889 6.16348 14.16 6.45566 14.7272 6.98027C15.3084 7.51816 15.6272 8.23756 15.6272 9.00345C15.6249 9.76048 15.3131 10.471 14.7459 11.0067V11.0067Z" fill="#002766"/>
</svg>
