<svg width="14" height="13" viewBox="0 0 14 13" fill="none" xmlns="http://www.w3.org/2000/svg">
<path d="M13.2125 11.9431L9.15469 8.11077C9.78438 7.34193 10.125 6.40191 10.125 5.4132C10.125 4.22969 9.63594 3.11997 8.75156 2.28325C7.86719 1.44653 6.68906 0.986115 5.4375 0.986115C4.18594 0.986115 3.00781 1.44801 2.12344 2.28325C1.2375 3.11849 0.75 4.22969 0.75 5.4132C0.75 6.59523 1.23906 7.7079 2.12344 8.54315C3.00781 9.37986 4.18438 9.84028 5.4375 9.84028C6.48438 9.84028 7.47813 9.51858 8.29219 8.92535L12.35 12.7563C12.3619 12.7675 12.376 12.7764 12.3916 12.7825C12.4071 12.7886 12.4238 12.7917 12.4406 12.7917C12.4575 12.7917 12.4741 12.7886 12.4897 12.7825C12.5052 12.7764 12.5194 12.7675 12.5312 12.7563L13.2125 12.1143C13.2244 12.1031 13.2338 12.0897 13.2403 12.0751C13.2467 12.0604 13.2501 12.0446 13.2501 12.0287C13.2501 12.0128 13.2467 11.9971 13.2403 11.9824C13.2338 11.9677 13.2244 11.9544 13.2125 11.9431V11.9431ZM7.9125 7.7507C7.25 8.37492 6.37187 8.71875 5.4375 8.71875C4.50313 8.71875 3.625 8.37492 2.9625 7.7507C2.30156 7.125 1.9375 6.29566 1.9375 5.4132C1.9375 4.53073 2.30156 3.69992 2.9625 3.0757C3.625 2.45148 4.50313 2.10764 5.4375 2.10764C6.37187 2.10764 7.25156 2.45 7.9125 3.0757C8.57344 3.70139 8.9375 4.53073 8.9375 5.4132C8.9375 6.29566 8.57344 7.12648 7.9125 7.7507Z" fill="#8C8C8C"/>
</svg>
